# xmcd
#
# Track frame offsets:
#	150
#	16880
#	32042
#	49537
#	66377
#	83852
#	100235
#	116412
#	133710
#	152482
#	169370
#	179910
#	191545
#	208055
#	224395
#	239637
#	253032
#	263237
#	278347
#	289355
#
# Disc length: 4060 seconds
#
# Revision: 0
# Processed by: cddbd v1.4PL0 Copyright (c) Steve Scherf et al.
# Submitted via: EasyCDDAExtractor 4.6.0.1
#
DISCID=2f0fda14
DTITLE=Rocío Dúrcal - antologia(CD3)
DYEAR=2000
DGENRE=
TTITLE0=la gata bajo la lluvia
TTITLE1=jamas te dejare
TTITLE2=tu foto en la pared
TTITLE3=bailemos otra vez
TTITLE4=sola
TTITLE5=¿por que me tratas asi?
TTITLE6=una vez mas(like a child)
TTITLE7=no sirvo para estar sin ti
TTITLE8=amor no, gracias
TTITLE9=tu sigues siendo el mismo
TTITLE10=cuando decidas volver
TTITLE11=hoy por fin
TTITLE12=dejame
TTITLE13=me desperto la realidad
TTITLE14=tenias que ser tan cruel
TTITLE15=que sea mi condena
TTITLE16=te llegara mi olvido
TTITLE17=cuando todo se acabe
TTITLE18=ya me voy 
TTITLE19=hazlo por mi corazon
EXTD=Umbrella Productions,inc.\n
EXTT0=
EXTT1=
EXTT2=
EXTT3=
EXTT4=
EXTT5=
EXTT6=
EXTT7=
EXTT8=
EXTT9=
EXTT10=
EXTT11=
EXTT12=
EXTT13=
EXTT14=
EXTT15=
EXTT16=
EXTT17=
EXTT18=
EXTT19=
PLAYORDER=
